# xmcd
#
# Track frame offsets: 
#        150
#        17383
#        32194
#        49235
#        67847
#        85613
#        110764
#        121788
#        142874
#        159973
#        186812
#        200874
#        215548
#        243922
#        263744
#        296909
#
# Disc length: 4243 seconds
#
# Revision: 0
# Processed by: cddbd v1.5.2PL0 Copyright (c) Steve Scherf et al.
# Submitted via: ExactAudioCopy v0.99pb4
#
DISCID=de109110
DTITLE=Melody Makers - Movin' On
DYEAR=2004
DGENRE=Rock
TTITLE0=No Harp
TTITLE1=It Just Won't Do
TTITLE2=Tell Me
TTITLE3=Little Girl
TTITLE4=If You Love Me Tonight
TTITLE5=Blue Cheese Blues
TTITLE6=I'll Never Love Again
TTITLE7=Pretty Baby
TTITLE8=Good Lovin' Woman
TTITLE9=It Will Never End
TTITLE10=Run To Me
TTITLE11=Let Me In
TTITLE12=I Got You(I Feel Good)
TTITLE13=Stone Free
TTITLE14=Oh Well
TTITLE15=Try A Little Tenderness
EXTD=
EXTT0=
EXTT1=
EXTT2=
EXTT3=
EXTT4=
EXTT5=
EXTT6=
EXTT7=
EXTT8=
EXTT9=
EXTT10=
EXTT11=
EXTT12=
EXTT13=
EXTT14=
EXTT15=
PLAYORDER=
